<?xml version="1.0" encoding="UTF-8"?>
<svg width="435.21mm" height="345.34mm" version="1.1" viewBox="0 0 435.21 345.34" xmlns="http://www.w3.org/2000/svg" xmlns:cc="http://creativecommons.org/ns#" xmlns:dc="http://purl.org/dc/elements/1.1/" xmlns:rdf="http://www.w3.org/1999/02/22-rdf-syntax-ns#">
 <defs>
  <marker id="marker2189" overflow="visible" orient="auto">
   <path transform="matrix(-.3 0 0 -.3 .69 0)" d="m8.7186 4.0337-10.926-4.0177 10.926-4.0177c-1.7455 2.3721-1.7354 5.6175-6e-7 8.0354z" fill-rule="evenodd" stroke="#000" stroke-linejoin="round" stroke-width=".625"/>
  </marker>
  <marker id="Arrow2Send" overflow="visible" orient="auto">
   <path transform="matrix(-.3 0 0 -.3 .69 0)" d="m8.7186 4.0337-10.926-4.0177 10.926-4.0177c-1.7455 2.3721-1.7354 5.6175-6e-7 8.0354z" fill="#601e1e" fill-rule="evenodd" stroke="#601e1e" stroke-linejoin="round" stroke-width=".625"/>
  </marker>
 </defs>
 <metadata>
  <rdf:RDF>
   <cc:Work rdf:about="">
    <dc:format>image/svg+xml</dc:format>
    <dc:type rdf:resource="http://purl.org/dc/dcmitype/StillImage"/>
    <dc:title/>
   </cc:Work>
  </rdf:RDF>
 </metadata>
 <g transform="translate(0 123.09)">
  <g>
   <path d="m187.85 50.371c71.781 0.66773 173.42-0.09994 193.15 0 19.333 0.09797 54.205-7.426 54.205-44.556 0-37.13-37.13-51.982-37.13-51.982s0-59.408-51.982-74.26c-51.982-14.852-81.685 37.13-81.685 37.13s-22.278-14.852-44.556 0c-22.278 14.852-14.852 37.13-14.852 37.13s-59.408 0-59.408 44.556c0 44.556 31.518 51.882 42.261 51.982z" fill="#e2eaf0"/>
   <ellipse cx="68.792" cy="10.583" rx="63.5" ry="31.75" fill="#e9e9e9" stroke="#000" stroke-width="5"/>
   <rect y="127" width="433.92" height="95.25" fill="#e9e9e9"/>
   <path d="m58.208 31.75-21.167 26.458h-21.167c-5.2917 0-7.9375 2.6458-7.9375 7.9375l-3e-6 15.875c-1e-6 5.2917 2.6458 7.9375 7.9375 7.9375h169.33c5.2917 0 7.9375-2.6458 7.9375-7.9375v-15.875c0-5.2917-2.6458-7.9375-7.9375-7.9375h-137.58z" fill="#fff" stroke="#000" stroke-width="2"/>
  </g>
  <g stroke-width=".26458">
   <path d="m26.021 86.378c-0.45909-0.19973-1.1066-0.73085-1.4388-1.1803-0.40103-0.54242-0.832-0.81745-1.282-0.81811-1.6004-2e-3 -3.453-1.9526-3.455-3.637-5.5e-4 -0.47295-0.11523-0.8599-0.25487-0.8599-0.47623 0-1.611-1.453-1.9114-2.4474-0.3772-1.2486 0.0219-2.7454 0.99017-3.7137 0.56012-0.56012 0.64813-0.83421 0.50789-1.5817-0.26486-1.4119 0.28652-2.9899 1.3378-3.8287 0.60555-0.48317 0.91725-0.95622 0.91791-1.3931 2e-3 -1.3359 1.6868-3.1474 2.9624-3.1852 0.18913-6e-3 0.58391-0.39256 0.87729-0.8599 1.2112-1.9294 3.9396-1.8558 5.1559 0.13907 0.81474 1.3363 0.81528 20.498 6.09e-4 21.834-1.0261 1.683-2.7132 2.2693-4.408 1.5319zm8.439-0.14387c-1.9586-1.1942-1.9321-1.0137-1.8537-12.657 0.0701-10.407 0.0701-10.407 0.928-11.173 1.5861-1.4168 3.6347-1.2077 4.6984 0.47952 0.29104 0.46166 0.68391 0.84397 0.87304 0.84958 1.2756 0.0378 2.9604 1.8493 2.9624 3.1852 5.29e-4 0.43684 0.31236 0.90989 0.91791 1.3931 1.0513 0.8388 1.6026 2.4169 1.3378 3.8287-0.14024 0.74751-0.0522 1.0216 0.50789 1.5817 0.96827 0.96827 1.3674 2.4651 0.99017 3.7137-0.30042 0.99443-1.4352 2.4474-1.9114 2.4474-0.13964 0-0.25433 0.38695-0.25487 0.8599-2e-3 1.6844-1.8546 3.6347-3.455 3.637-0.45014 6.6e-4 -0.88103 0.2758-1.2827 0.81906-1.1098 1.5011-2.9814 1.9358-4.458 1.0354z"/>
   <path d="m67.182 86.876c-1.0019-1.0019-2.0573-3.4236-2.6389-6.0548-0.16081-0.7276-0.16081-0.7276 4.2032-0.7276 4.9274 0 4.6877-0.21352 3.5405 3.1539-1.3295 3.9023-3.3762 5.3572-5.1048 3.6286zm-4.1125-0.71292c-2.1586-1.1868-5.5562-4.8058-5.5562-5.9182 0-0.0832 1.1751-0.15132 2.6114-0.15132 2.6114 0 2.6114 0 2.917 1.5214 0.25468 1.268 0.73576 2.6178 1.7916 5.0271 0.2205 0.50312-0.17083 0.39686-1.7638-0.47895zm9.525 0.66859c0-0.0776 0.28685-0.70717 0.63745-1.399s0.85108-2.1762 1.1122-3.2985c0.47473-2.0405 0.47473-2.0405 3.0667-2.0405 1.4256 0 2.592 0.0681 2.592 0.15132 0 0.52319-1.5624 2.6424-2.862 3.882-1.6031 1.5291-4.5463 3.2801-4.5463 2.7047zm-15.804-9.0532c-0.26247-0.93894-0.26247-3.9559 0-4.8948 0.20339-0.7276 0.20339-0.7276 2.9422-0.7276 2.7388 0 2.7388 0 2.7388 3.175s0 3.175-2.7388 3.175c-2.7388 0-2.7388 0-2.9422-0.7276zm7.3371-2.4474c0-3.175 0-3.175 4.6302-3.175 4.6302 0 4.6302 0 4.6302 3.175s0 3.175-4.6302 3.175c-4.6302 0-4.6302 0-4.6302-3.175zm10.917 0c0-3.1922 0-3.1922 2.81-3.1175 2.81 0.0747 2.81 0.0747 3.0384 1.5961 0.12824 0.85392 0.12824 2.1888 0 3.0427-0.22847 1.5214-0.22847 1.5214-3.0384 1.5961-2.81 0.0748-2.81 0.0748-2.81-3.1175zm-17.531-4.9138c0-1.1591 3.64-4.9613 5.7953-6.0534 1.7243-0.87374 1.8175-0.79574 0.9934 0.83061-0.36038 0.71118-0.86887 2.2113-1.13 3.3336-0.47473 2.0405-0.47473 2.0405-3.0667 2.0405-1.4256 0-2.592-0.0681-2.592-0.15132zm7.0599-0.70858c1.4857-7.6272 5.4909-8.8183 7.7137-2.294 1.1471 3.3669 1.3854 3.1539-3.5288 3.1539-4.3524 0-4.3524 0-4.1849-0.8599zm9.8117-1.0011c-0.24021-1.0236-0.74301-2.53-1.1173-3.3476-0.83902-1.8327-0.79748-1.8767 0.9401-0.99617 2.1553 1.0922 5.7953 4.8943 5.7953 6.0534 0 0.0832-1.1658 0.15132-2.5906 0.15132-2.5906 0-2.5906 0-3.0274-1.861z"/>
   <path d="m95.948 85.156c1.2328-1.5875 1.2328-1.5875 7.2348-1.5875 6.5795 0 6.8777-0.0708 6.8777-1.6335 0-1.2934-0.66067-1.5415-4.1045-1.5415-3.7416 0-5.012-0.45241-6.1656-2.1955-2.1788-3.2924 0.31779-7.3295 4.5328-7.3295 0.82718 0 1.504-0.0451 1.504-0.10025 0-0.0551-0.41154-0.78367-0.91454-1.619-1.2457-2.0687-1.4309-3.4618-0.66941-5.0349 1.5848-3.2739 6.1196-3.6432 8.0943-0.65918 1.3458 2.0336 1.1394 3.5191-0.9287 6.6872-2.5136 3.8505-2.5876 3.9012-5.7004 3.9012-2.9743 0-3.5855 0.27845-3.5855 1.6335 0 1.2934 0.66066 1.5415 4.1045 1.5415 3.7416 0 5.012 0.45236 6.1656 2.1955 1.5363 2.3215 0.64421 5.5514-1.8695 6.7682-1.0958 0.53046-1.5606 0.56121-8.4838 0.56121-7.3245 0-7.3245 0-6.0917-1.5875zm13.629-17.9c0.63501-0.57468 0.61504-1.5476-0.0453-2.208-1.4662-1.4662-3.6002 0.62349-2.208 2.162 0.54522 0.60246 1.6142 0.62429 2.2533 0.046zm-18.111 18.111c-2.5435-3.1307-3.795-5.7082-3.5385-7.2883 0.67322-4.1485 6.2415-5.3899 8.5474-1.9055 1.4696 2.2207 0.93893 4.3379-2.0818 8.3051-1.7271 2.2682-1.7906 2.2875-2.927 0.88876zm2.2359-5.4115c0.60246-0.54523 0.62427-1.6142 0.046-2.2533-0.90854-1.0039-2.7371-0.29734-2.7371 1.0577 0 1.4152 1.6422 2.1448 2.6911 1.1956z"/>
  </g>
  <path d="m126.56 86.378c-0.45909-0.19973-1.1066-0.73085-1.4388-1.1803-0.40103-0.54242-0.832-0.81745-1.282-0.81811-1.6004-2e-3 -3.453-1.9526-3.455-3.637-5.5e-4 -0.47295-0.11523-0.8599-0.25487-0.8599-0.47623 0-1.611-1.453-1.9114-2.4474-0.3772-1.2486 0.0219-2.7454 0.99017-3.7137 0.56012-0.56012 0.64813-0.83421 0.50789-1.5817-0.26486-1.4119 0.28652-2.9899 1.3378-3.8287 0.60555-0.48317 0.91725-0.95622 0.91791-1.3931 2e-3 -1.3359 1.6868-3.1474 2.9624-3.1852 0.18913-6e-3 0.58391-0.39256 0.87729-0.8599 1.2112-1.9294 3.9396-1.8558 5.1559 0.13907 0.81474 1.3363 0.81528 20.498 6.1e-4 21.834-1.0261 1.683-2.7132 2.2693-4.408 1.5319zm8.439-0.14387c-1.9586-1.1942-1.9321-1.0137-1.8537-12.657 0.0701-10.407 0.0701-10.407 0.928-11.173 1.5861-1.4168 3.6347-1.2077 4.6984 0.47952 0.29104 0.46166 0.68391 0.84397 0.87304 0.84958 1.2756 0.0378 2.9604 1.8493 2.9624 3.1852 5.3e-4 0.43684 0.31236 0.90989 0.91791 1.3931 1.0513 0.8388 1.6026 2.4169 1.3378 3.8287-0.14024 0.74751-0.0522 1.0216 0.50789 1.5817 0.96827 0.96827 1.3674 2.4651 0.99017 3.7137-0.30042 0.99443-1.4352 2.4474-1.9114 2.4474-0.13964 0-0.25433 0.38695-0.25487 0.8599-2e-3 1.6844-1.8546 3.6347-3.455 3.637-0.45014 6.61e-4 -0.88103 0.2758-1.2827 0.81906-1.1098 1.5011-2.9814 1.9358-4.458 1.0354z" fill="#ca0000" stroke-width=".26458"/>
  <path d="m163.6 86.378c-0.45909-0.19973-1.1066-0.73085-1.4388-1.1803-0.40103-0.54242-0.832-0.81745-1.282-0.81811-1.6004-2e-3 -3.453-1.9526-3.455-3.637-5.5e-4 -0.47295-0.11523-0.8599-0.25487-0.8599-0.47623 0-1.611-1.453-1.9114-2.4474-0.3772-1.2486 0.0219-2.7454 0.99017-3.7137 0.56012-0.56012 0.64813-0.83421 0.50789-1.5817-0.26486-1.4119 0.28652-2.9899 1.3378-3.8287 0.60555-0.48317 0.91725-0.95622 0.91791-1.3931 2e-3 -1.3359 1.6868-3.1474 2.9624-3.1852 0.18913-6e-3 0.58391-0.39256 0.87729-0.8599 1.2112-1.9294 3.9396-1.8558 5.1559 0.13907 0.81474 1.3363 0.81528 20.498 6.1e-4 21.834-1.0261 1.683-2.7132 2.2693-4.408 1.5319zm8.439-0.14387c-1.9586-1.1942-1.9321-1.0137-1.8537-12.657 0.0701-10.407 0.0701-10.407 0.928-11.173 1.5861-1.4168 3.6347-1.2077 4.6984 0.47952 0.29104 0.46166 0.68391 0.84397 0.87304 0.84958 1.2756 0.0378 2.9604 1.8493 2.9624 3.1852 5.3e-4 0.43684 0.31236 0.90989 0.91791 1.3931 1.0513 0.8388 1.6026 2.4169 1.3378 3.8287-0.14024 0.74751-0.0522 1.0216 0.50789 1.5817 0.96827 0.96827 1.3674 2.4651 0.99017 3.7137-0.30042 0.99443-1.4352 2.4474-1.9114 2.4474-0.13964 0-0.25433 0.38695-0.25487 0.8599-2e-3 1.6844-1.8546 3.6347-3.455 3.637-0.45014 6.61e-4 -0.88103 0.2758-1.2827 0.81906-1.1098 1.5011-2.9814 1.9358-4.458 1.0354z" stroke-width=".26458"/>
  <g>
   <text transform="translate(21.166 22.095)" fill="#000000" font-family="sans-serif" font-size="10.583px" style="line-height:1.25;shape-inside:url(#rect1507);white-space:pre" xml:space="preserve"><tspan x="10.583984" y="126.07148"><tspan fill="#303030" font-family="'Courier New'" font-weight="bold">&gt;&gt;&gt; </tspan><tspan fill="#0071e4">from</tspan><tspan fill="#303030" font-family="'Courier New'" font-weight="bold"> </tspan><tspan fill="#e5007a">templateflow</tspan><tspan fill="#303030" font-family="'Courier New'" font-weight="bold"> </tspan><tspan fill="#0073e5">import</tspan><tspan fill="#303030" font-family="'Courier New'" font-weight="bold"> api </tspan><tspan fill="#0073e5">as</tspan><tspan fill="#303030" font-family="'Courier New'" font-weight="bold"> tflow</tspan><tspan dx="6.3458557"/></tspan><tspan x="10.583984" y="139.67574"><tspan fill="#303030" font-family="'Courier New'" font-weight="bold">&gt;&gt;&gt; tflow.get(</tspan><tspan fill="#248f36">'MNI152NLin6Asym'</tspan><tspan fill="#303030" font-family="'Courier New'" font-weight="bold">, desc=None, resolution=</tspan><tspan fill="#e5007a">1</tspan><tspan fill="#303030" font-family="'Courier New'" font-weight="bold">,</tspan><tspan dx="6.3458557"/></tspan><tspan x="10.583984" y="153.28001"><tspan fill="#303030" font-family="'Courier New'" font-weight="bold">...           suffix=</tspan><tspan fill="#248f35">'T1w'</tspan><tspan fill="#303030" font-family="'Courier New'" font-weight="bold">, extension=</tspan><tspan fill="#238f36">'nii.gz'</tspan><tspan fill="#303030" font-family="'Courier New'" font-weight="bold">)</tspan><tspan dx="6.3458557"/></tspan><tspan x="10.583984" y="166.88427"><tspan fill="#303030" font-family="'Courier New'" font-weight="bold">PosixPath(</tspan><tspan fill="#1e7b2e">'/templateflow_home/tpl-MNI152NLin6Asym/tpl-        </tspan><tspan dx="3.7206802"/></tspan><tspan x="10.583984" y="180.48853"><tspan fill="#1e7b2e">           MNI152NLin6Asym_res-01_T1w.nii.gz'</tspan><tspan fill="#303030" font-family="'Courier New'" font-weight="bold">)</tspan></tspan></text>
   <ellipse cx="68.792" cy="-21.167" rx="63.5" ry="31.75" fill="#e9e9e9" stroke="#000" stroke-width="5"/>
   <ellipse cx="68.792" cy="-52.917" rx="63.5" ry="31.75" fill="#e9e9e9" stroke="#000" stroke-width="5"/>
  </g>
  <g stroke="#fff" stroke-width="5">
   <ellipse cx="312.21" cy="10.583" rx="63.5" ry="31.75"/>
   <ellipse cx="312.21" cy="-21.167" rx="63.5" ry="31.75"/>
   <ellipse cx="312.21" cy="-52.917" rx="63.5" ry="31.75"/>
  </g>
  <path d="m312.21 15.875-5.2917 42.333-5.2917-1e-6c-5.2917 0-7.9375 2.6458-7.9375 7.9375v15.875c0 5.2917 2.6458 7.9375 7.9375 7.9375h21.167c5.2917 0 7.9375-2.6458 7.9375-7.9375v-15.875c0-5.2917-2.6458-7.9375-7.9375-7.9375l-5.2917 1e-6z" fill="#fff" stroke="#000" stroke-width="2"/>
  <path d="m305.62 86.884c-0.45909-0.19973-1.1066-0.73085-1.4388-1.1803-0.40103-0.54242-0.832-0.81745-1.282-0.81811-1.6004-2e-3 -3.453-1.9526-3.455-3.637-5.5e-4 -0.47295-0.11523-0.8599-0.25487-0.8599-0.47623 0-1.611-1.453-1.9114-2.4474-0.3772-1.2486 0.0219-2.7454 0.99017-3.7137 0.56012-0.56012 0.64813-0.83421 0.50789-1.5817-0.26486-1.4119 0.28652-2.9899 1.3378-3.8287 0.60555-0.48317 0.91725-0.95622 0.91791-1.3931 2e-3 -1.3359 1.6868-3.1474 2.9624-3.1852 0.18913-6e-3 0.58391-0.39256 0.87729-0.8599 1.2112-1.9294 3.9396-1.8558 5.1559 0.13907 0.81474 1.3363 0.81528 20.498 6.1e-4 21.834-1.0261 1.683-2.7132 2.2693-4.408 1.5319zm8.439-0.14387c-1.9586-1.1942-1.9321-1.0137-1.8537-12.657 0.0701-10.407 0.0701-10.407 0.928-11.173 1.5861-1.4168 3.6347-1.2077 4.6984 0.47952 0.29104 0.46166 0.68391 0.84397 0.87304 0.84958 1.2756 0.0378 2.9604 1.8493 2.9624 3.1852 5.3e-4 0.43684 0.31236 0.90989 0.91791 1.3931 1.0513 0.8388 1.6026 2.4169 1.3378 3.8287-0.14024 0.74751-0.0522 1.0216 0.50789 1.5817 0.96827 0.96827 1.3674 2.4651 0.99017 3.7137-0.30042 0.99443-1.4352 2.4474-1.9114 2.4474-0.13964 0-0.25433 0.38695-0.25487 0.8599-2e-3 1.6844-1.8546 3.6347-3.455 3.637-0.45014 6.61e-4 -0.88103 0.2758-1.2827 0.81906-1.1098 1.5011-2.9814 1.9358-4.458 1.0354z" fill="#ca0000" stroke-width=".26458"/>
  <path d="m132.29 89.958 1e-5 21.167h179.92v-15.875" fill="none" marker-end="url(#Arrow2Send)" stroke="#601e1e" stroke-width="5"/>
  <path d="m248.71 10.583h-88.231" fill="none" marker-end="url(#marker2189)" stroke="#000" stroke-dasharray="5, 5" stroke-width="20"/>
 </g>
</svg>
